{
  "accessors": [
    {
      "bufferView": 2,
      "componentType": 5126,
      "count": 774,
      "max": [
        0.9212931990623474,
        1.7311538457870483,
        0.8649243712425232
      ],
      "min": [
        -0.9252563118934631,
        -0.628299355506897,
        -1.6226835250854492
      ],
      "type": "VEC3"
    },
    {
      "bufferView": 2,
      "byteOffset": 9288,
      "componentType": 5126,
      "count": 774,
      "max": [
        0.9995995163917542,
        0.9984272122383118,
        0.9982399940490723
      ],
      "min": [
        -0.9995995163917542,
        -0.9991983771324158,
        -0.9998412132263184
      ],
      "type": "VEC3"
    },
    {
      "bufferView": 1,
      "componentType": 5126,
      "count": 774,
      "max": [
        1.015143632888794,
        1.5256226062774658
      ],
      "min": [
        -1.9401681423187256,
        0.0
      ],
      "type": "VEC2"
    },
    {
      "bufferView": 0,
      "componentType": 5125,
      "count": 3942,
      "type": "SCALAR"
    },
    {
      "bufferView": 2,
      "byteOffset": 18576,
      "componentType": 5126,
      "count": 375,
      "max": [
        0.6387788653373718,
        0.5870165824890137,
        0.006940463557839394
      ],
      "min": [
        -0.6173757910728455,
        -0.8939336538314819,
        -1.6835846900939941
      ],
      "type": "VEC3"
    },
    {
      "bufferView": 2,
      "byteOffset": 23076,
      "componentType": 5126,
      "count": 375,
      "max": [
        0.9908912181854248,
        0.9740859270095825,
        0.9890788197517395
      ],
      "min": [
        -0.9908912181854248,
        -0.9674426317214966,
        -0.9990262389183044
      ],
      "type": "VEC3"
    },
    {
      "bufferView": 1,
      "byteOffset": 6192,
      "componentType": 5126,
      "count": 375,
      "max": [
        0.8750001192092896,
        1.0000001192092896
      ],
      "min": [
        0.125,
        0.0
      ],
      "type": "VEC2"
    },
    {
      "bufferView": 0,
      "byteOffset": 15768,
      "componentType": 5125,
      "count": 1728,
      "type": "SCALAR"
    },
    {
      "bufferView": 2,
      "byteOffset": 27576,
      "componentType": 5126,
      "count": 1017,
      "max": [
        0.4460754990577698,
        -0.054885804653167725,
        0.9237948656082153
      ],
      "min": [
        -0.44145336747169495,
        -0.7331951856613159,
        -0.15541605651378632
      ],
      "type": "VEC3"
    },
    {
      "bufferView": 2,
      "byteOffset": 39780,
      "componentType": 5126,
      "count": 1017,
      "max": [
        0.9974184036254883,
        0.9996607303619385,
        0.9850202202796936
      ],
      "min": [
        -0.9974183440208435,
        -0.9998703598976135,
        -0.9898626804351807
      ],
      "type": "VEC3"
    },
    {
      "bufferView": 1,
      "byteOffset": 9192,
      "componentType": 5126,
      "count": 1017,
      "max": [
        1.0,
        1.0000001192092896
      ],
      "min": [
        0.0,
        0.0
      ],
      "type": "VEC2"
    },
    {
      "bufferView": 0,
      "byteOffset": 22680,
      "componentType": 5125,
      "count": 4806,
      "type": "SCALAR"
    },
    {
      "bufferView": 2,
      "byteOffset": 51984,
      "componentType": 5126,
      "count": 2021,
      "max": [
        0.9437634348869324,
        1.7539710998535156,
        0.9482920169830322
      ],
      "min": [
        -0.9477424025535583,
        -0.9161691665649414,
        -1.701837182044983
      ],
      "type": "VEC3"
    },
    {
      "bufferView": 2,
      "byteOffset": 76236,
      "componentType": 5126,
      "count": 2021,
      "max": [
        0.9995924234390259,
        0.9999232292175293,
        0.9998394250869751
      ],
      "min": [
        -0.9999990463256836,
        -0.9999541640281677,
        -0.9982002377510071
      ],
      "type": "VEC3"
    },
    {
      "bufferView": 1,
      "byteOffset": 17328,
      "componentType": 5126,
      "count": 2021,
      "max": [
        1.015143632888794,
        1.5256226062774658
      ],
      "min": [
        -1.9401681423187256,
        0.0
      ],
      "type": "VEC2"
    },
    {
      "bufferView": 0,
      "byteOffset": 41904,
      "componentType": 5125,
      "count": 9945,
      "type": "SCALAR"
    }
  ],
  "asset": {
    "extras": {
      "author": "Thi3d (https://sketchfab.com/Thiagop1)",
      "license": "CC-BY-4.0 (http://creativecommons.org/licenses/by/4.0/)",
      "source": "https://sketchfab.com/3d-models/baby-duck-4fb50bede4db49ef8a00037e59b6425d",
      "title": "Baby duck"
    },
    "generator": "Sketchfab-14.20.0",
    "version": "2.0"
  },
  "bufferViews": [
    {
      "buffer": 0,
      "byteLength": 81684,
      "name": "floatBufferViews",
      "target": 34963
    },
    {
      "buffer": 0,
      "byteLength": 33496,
      "byteOffset": 81684,
      "byteStride": 8,
      "name": "floatBufferViews",
      "target": 34962
    },
    {
      "buffer": 0,
      "byteLength": 100488,
      "byteOffset": 115180,
      "byteStride": 12,
      "name": "floatBufferViews",
      "target": 34962
    }
  ],
  "buffers": [
    {
      "byteLength": 215668,
      "uri": "scene.bin"
    }
  ],
  "materials": [
    {
      "doubleSided": true,
      "name": "Amarelo",
      "pbrMetallicRoughness": {
        "baseColorFactor": [
          0.865686540829068,
          0.8700978898221403,
          0.45165185646433476,
          1.0
        ],
        "metallicFactor": 0.0,
        "roughnessFactor": 0.278857992710073
      }
    },
    {
      "doubleSided": true,
      "name": "Laranja",
      "pbrMetallicRoughness": {
        "baseColorFactor": [
          0.7241664348743744,
          0.43244052747643424,
          0.18249610688755444,
          1.0
        ],
        "metallicFactor": 0.0,
        "roughnessFactor": 0.8040408205773457
      }
    },
    {
      "doubleSided": true,
      "name": "Preto",
      "pbrMetallicRoughness": {
        "baseColorFactor": [
          0.0,
          0.0,
          0.0,
          1.0
        ],
        "metallicFactor": 0.0,
        "roughnessFactor": 0.8040408205773457
      }
    },
    {
      "name": "Emission",
      "pbrMetallicRoughness": {
        "baseColorFactor": [
          0.0,
          0.0,
          0.0,
          1.0
        ],
        "metallicFactor": 0.0,
        "roughnessFactor": 0.8040408205773457
      }
    }
  ],
  "meshes": [
    {
      "name": "1",
      "primitives": [
        {
          "attributes": {
            "NORMAL": 1,
            "POSITION": 0,
            "TEXCOORD_0": 2
          },
          "indices": 3,
          "material": 0,
          "mode": 4
        }
      ]
    },
    {
      "name": "2",
      "primitives": [
        {
          "attributes": {
            "NORMAL": 5,
            "POSITION": 4,
            "TEXCOORD_0": 6
          },
          "indices": 7,
          "material": 1,
          "mode": 4
        }
      ]
    },
    {
      "name": "0",
      "primitives": [
        {
          "attributes": {
            "NORMAL": 9,
            "POSITION": 8,
            "TEXCOORD_0": 10
          },
          "indices": 11,
          "material": 2,
          "mode": 4
        }
      ]
    },
    {
      "name": "3",
      "primitives": [
        {
          "attributes": {
            "NORMAL": 13,
            "POSITION": 12,
            "TEXCOORD_0": 14
          },
          "indices": 15,
          "material": 3,
          "mode": 4
        }
      ]
    }
  ],
  "nodes": [
    {
      "children": [
        1
      ],
      "matrix": [
        1.0,
        0.0,
        0.0,
        0.0,
        0.0,
        2.220446049250313e-16,
        -1.0,
        0.0,
        0.0,
        1.0,
        2.220446049250313e-16,
        0.0,
        0.0,
        0.0,
        0.0,
        1.0
      ],
      "name": "Sketchfab_model"
    },
    {
      "children": [
        2
      ],
      "matrix": [
        0.009999999776482582,
        0.0,
        0.0,
        0.0,
        0.0,
        0.0,
        0.009999999776482582,
        0.0,
        0.0,
        -0.009999999776482582,
        0.0,
        0.0,
        0.0,
        0.0,
        0.0,
        1.0
      ],
      "name": "7c3ac4af04d54b53a5af8a8ddad2fc9c.fbx"
    },
    {
      "children": [
        3,
        6,
        10,
        13,
        16,
        19
      ],
      "name": "RootNode"
    },
    {
      "children": [
        4
      ],
      "matrix": [
        -29.08647719990347,
        -5.518906457566863,
        -95.51711910171437,
        0.0,
        56.63930913109449,
        79.46723428563203,
        -21.83912397841966,
        0.0,
        77.11008775993375,
        -60.45246356562044,
        -19.98834696773717,
        0.0,
        165.29934692382813,
        519.7686157226563,
        380.38702392578125,
        1.0
      ],
      "name": "Light"
    },
    {
      "children": [
        5
      ],
      "matrix": [
        1.0,
        0.0,
        0.0,
        0.0,
        0.0,
        2.220446049250313e-16,
        1.0,
        0.0,
        0.0,
        -1.0,
        2.220446049250313e-16,
        0.0,
        0.0,
        0.0,
        0.0,
        1.0
      ],
      "name": "Object_4"
    },
    {
      "name": "Object_5"
    },
    {
      "children": [
        7,
        8,
        9
      ],
      "matrix": [
        99.99861708296994,
        -0.5071497410332669,
        0.13921434452408346,
        0.0,
        0.05133115547367624,
        -16.932600318658242,
        -98.55599632473438,
        0.0,
        0.5233990886781493,
        98.55470483740869,
        -16.93210582902274,
        0.0,
        0.2038496732711792,
        109.1312255859375,
        18.49852180480957,
        1.0
      ],
      "name": "Cube.003"
    },
    {
      "mesh": 0,
      "name": "1"
    },
    {
      "mesh": 1,
      "name": "2"
    },
    {
      "mesh": 2,
      "name": "0"
    },
    {
      "children": [
        11
      ],
      "matrix": [
        -29.08647719990347,
        -5.518906457566863,
        -95.51711910171437,
        0.0,
        56.63930913109449,
        79.46723428563203,
        -21.83912397841966,
        0.0,
        77.11008775993375,
        -60.45246356562044,
        -19.98834696773717,
        0.0,
        -196.4922332763672,
        269.5805358886719,
        300.966064453125,
        1.0
      ],
      "name": "Light.001"
    },
    {
      "children": [
        12
      ],
      "matrix": [
        1.0,
        0.0,
        0.0,
        0.0,
        0.0,
        2.220446049250313e-16,
        1.0,
        0.0,
        0.0,
        -1.0,
        2.220446049250313e-16,
        0.0,
        0.0,
        0.0,
        0.0,
        1.0
      ],
      "name": "Object_11"
    },
    {
      "name": "Object_12"
    },
    {
      "children": [
        14
      ],
      "matrix": [
        -29.08647719990347,
        -5.518906457566863,
        -95.51711910171437,
        0.0,
        56.63930913109449,
        79.46723428563203,
        -21.83912397841966,
        0.0,
        77.11008775993375,
        -60.45246356562044,
        -19.98834696773717,
        0.0,
        -20.78891372680664,
        147.34483337402344,
        -536.35693359375,
        1.0
      ],
      "name": "Light.002"
    },
    {
      "children": [
        15
      ],
      "matrix": [
        1.0,
        0.0,
        0.0,
        0.0,
        0.0,
        2.220446049250313e-16,
        1.0,
        0.0,
        0.0,
        -1.0,
        2.220446049250313e-16,
        0.0,
        0.0,
        0.0,
        0.0,
        1.0
      ],
      "name": "Object_14"
    },
    {
      "name": "Object_15"
    },
    {
      "children": [
        17
      ],
      "matrix": [
        -29.08647719990347,
        -5.518906457566863,
        -95.51711910171437,
        0.0,
        56.63930913109449,
        79.46723428563203,
        -21.83912397841966,
        0.0,
        77.11008775993375,
        -60.45246356562044,
        -19.98834696773717,
        0.0,
        -299.776611328125,
        428.40777587890625,
        -570.2615356445313,
        1.0
      ],
      "name": "Light.003"
    },
    {
      "children": [
        18
      ],
      "matrix": [
        1.0,
        0.0,
        0.0,
        0.0,
        0.0,
        2.220446049250313e-16,
        1.0,
        0.0,
        0.0,
        -1.0,
        2.220446049250313e-16,
        0.0,
        0.0,
        0.0,
        0.0,
        1.0
      ],
      "name": "Object_17"
    },
    {
      "name": "Object_18"
    },
    {
      "children": [
        20
      ],
      "matrix": [
        99.99861708296994,
        -0.5071497410332669,
        0.13921434452408346,
        0.0,
        0.05133115547367624,
        -16.932600318658242,
        -98.55599632473438,
        0.0,
        0.5233990886781493,
        98.55470483740869,
        -16.93210582902274,
        0.0,
        0.20284026861190796,
        108.78424835205078,
        18.52715301513672,
        1.0
      ],
      "name": "Cube.001"
    },
    {
      "mesh": 3,
      "name": "3"
    }
  ],
  "scene": 0,
  "scenes": [
    {
      "name": "Sketchfab_Scene",
      "nodes": [
        0
      ]
    }
  ]
}
