{
  "accessors": [
    {
      "bufferView": 2,
      "componentType": 5126,
      "count": 2922,
      "max": [
        0.42236998677253723,
        0.7699400186538696,
        0.9720169901847839
      ],
      "min": [
        -0.42236998677253723,
        -0.5015630125999451,
        -0.00800700020045042
      ],
      "type": "VEC3"
    },
    {
      "bufferView": 2,
      "byteOffset": 35064,
      "componentType": 5126,
      "count": 2922,
      "max": [
        1.0,
        1.0,
        1.0
      ],
      "min": [
        -1.0,
        -0.9999622106552124,
        -1.0
      ],
      "type": "VEC3"
    },
    {
      "bufferView": 1,
      "componentType": 5126,
      "count": 2922,
      "max": [
        0.9950039982795715,
        0.9866520166397095
      ],
      "min": [
        0.00023200000578071922,
        0.00023200000578071922
      ],
      "type": "VEC2"
    },
    {
      "bufferView": 0,
      "componentType": 5125,
      "count": 10176,
      "type": "SCALAR"
    },
    {
      "bufferView": 2,
      "byteOffset": 70128,
      "componentType": 5126,
      "count": 268,
      "max": [
        0.44023001194000244,
        0.3374190032482147,
        0.5551440119743347
      ],
      "min": [
        -0.44023001194000244,
        -0.4884510040283203,
        0.346671998500824
      ],
      "type": "VEC3"
    },
    {
      "bufferView": 2,
      "byteOffset": 73344,
      "componentType": 5126,
      "count": 268,
      "max": [
        0.9999313354492188,
        0.9997170567512512,
        0.9995316863059998
      ],
      "min": [
        -0.9999313354492188,
        -0.9997164607048035,
        -0.9999449253082275
      ],
      "type": "VEC3"
    },
    {
      "bufferView": 1,
      "byteOffset": 23376,
      "componentType": 5126,
      "count": 268,
      "max": [
        0.4667550027370453,
        0.2252579927444458
      ],
      "min": [
        0.020251000300049782,
        0.06844399869441986
      ],
      "type": "VEC2"
    },
    {
      "bufferView": 0,
      "byteOffset": 40704,
      "componentType": 5125,
      "count": 708,
      "type": "SCALAR"
    },
    {
      "bufferView": 2,
      "byteOffset": 76560,
      "componentType": 5126,
      "count": 288,
      "max": [
        0.4058710038661957,
        0.3304010033607483,
        0.8728489875793457
      ],
      "min": [
        -0.4058710038661957,
        0.09802799671888351,
        0.29989299178123474
      ],
      "type": "VEC3"
    },
    {
      "bufferView": 2,
      "byteOffset": 80016,
      "componentType": 5126,
      "count": 288,
      "max": [
        0.9779160022735596,
        0.968211829662323,
        0.9820665121078491
      ],
      "min": [
        -0.9779160022735596,
        -0.968211829662323,
        -0.9820665121078491
      ],
      "type": "VEC3"
    },
    {
      "bufferView": 1,
      "byteOffset": 25520,
      "componentType": 5126,
      "count": 288,
      "max": [
        1.0,
        1.0
      ],
      "min": [
        0.0,
        0.009999999776482582
      ],
      "type": "VEC2"
    },
    {
      "bufferView": 0,
      "byteOffset": 43536,
      "componentType": 5125,
      "count": 540,
      "type": "SCALAR"
    },
    {
      "bufferView": 2,
      "byteOffset": 83472,
      "componentType": 5126,
      "count": 290,
      "max": [
        0.323729008436203,
        -0.31446900963783264,
        0.564981997013092
      ],
      "min": [
        -0.3450529873371124,
        -0.4395340085029602,
        0.36518600583076477
      ],
      "type": "VEC3"
    },
    {
      "bufferView": 2,
      "byteOffset": 86952,
      "componentType": 5126,
      "count": 290,
      "max": [
        0.9983466863632202,
        0.9918397068977356,
        0.9939292669296265
      ],
      "min": [
        -0.9922674298286438,
        -0.9803597927093506,
        -0.9944598078727722
      ],
      "type": "VEC3"
    },
    {
      "bufferView": 1,
      "byteOffset": 27824,
      "componentType": 5126,
      "count": 290,
      "max": [
        0.875,
        0.75
      ],
      "min": [
        0.125,
        0.0
      ],
      "type": "VEC2"
    },
    {
      "bufferView": 0,
      "byteOffset": 45696,
      "componentType": 5125,
      "count": 696,
      "type": "SCALAR"
    },
    {
      "bufferView": 2,
      "byteOffset": 90432,
      "componentType": 5126,
      "count": 278,
      "max": [
        0.306657999753952,
        0.5367299914360046,
        0.6108480095863342
      ],
      "min": [
        -0.306657999753952,
        0.2870360016822815,
        0.2867079973220825
      ],
      "type": "VEC3"
    },
    {
      "bufferView": 2,
      "byteOffset": 93768,
      "componentType": 5126,
      "count": 278,
      "max": [
        0.9993407726287842,
        0.9994718432426453,
        0.9995618462562561
      ],
      "min": [
        -0.9993407726287842,
        -0.38401177525520325,
        -0.9734748601913452
      ],
      "type": "VEC3"
    },
    {
      "bufferView": 1,
      "byteOffset": 30144,
      "componentType": 5126,
      "count": 278,
      "max": [
        0.625,
        0.375
      ],
      "min": [
        0.375,
        0.25
      ],
      "type": "VEC2"
    },
    {
      "bufferView": 0,
      "byteOffset": 48480,
      "componentType": 5125,
      "count": 1008,
      "type": "SCALAR"
    },
    {
      "bufferView": 2,
      "byteOffset": 97104,
      "componentType": 5126,
      "count": 33,
      "max": [
        0.27926498651504517,
        0.487635999917984,
        0.5889480113983154
      ],
      "min": [
        -0.27926498651504517,
        0.32871198654174805,
        0.3214080035686493
      ],
      "type": "VEC3"
    },
    {
      "bufferView": 2,
      "byteOffset": 97500,
      "componentType": 5126,
      "count": 33,
      "max": [
        0.6893635988235474,
        0.9362674951553345,
        0.39079123735427856
      ],
      "min": [
        -0.6893635988235474,
        0.6590651869773865,
        0.2576045095920563
      ],
      "type": "VEC3"
    },
    {
      "bufferView": 1,
      "byteOffset": 32368,
      "componentType": 5126,
      "count": 33,
      "max": [
        0.625,
        0.375
      ],
      "min": [
        0.375,
        0.25
      ],
      "type": "VEC2"
    },
    {
      "bufferView": 0,
      "byteOffset": 52512,
      "componentType": 5125,
      "count": 120,
      "type": "SCALAR"
    },
    {
      "bufferView": 2,
      "byteOffset": 97896,
      "componentType": 5126,
      "count": 322,
      "max": [
        0.35865500569343567,
        0.48694899678230286,
        0.608676016330719
      ],
      "min": [
        -0.35865500569343567,
        0.27606201171875,
        0.29078400135040283
      ],
      "type": "VEC3"
    },
    {
      "bufferView": 2,
      "byteOffset": 101760,
      "componentType": 5126,
      "count": 322,
      "max": [
        0.9998944997787476,
        0.9687941074371338,
        0.9921339154243469
      ],
      "min": [
        -0.9998944997787476,
        -0.22300516068935394,
        -0.9719184041023254
      ],
      "type": "VEC3"
    },
    {
      "bufferView": 1,
      "byteOffset": 32632,
      "componentType": 5126,
      "count": 322,
      "max": [
        1.0,
        1.0
      ],
      "min": [
        0.0,
        0.0
      ],
      "type": "VEC2"
    },
    {
      "bufferView": 0,
      "byteOffset": 52992,
      "componentType": 5125,
      "count": 1020,
      "type": "SCALAR"
    }
  ],
  "asset": {
    "extras": {
      "author": "Muhammad Seno Aji (https://sketchfab.com/senoaji)",
      "license": "CC-BY-4.0 (http://creativecommons.org/licenses/by/4.0/)",
      "source": "https://sketchfab.com/3d-models/fox-x-supreme-helmet-ac680d32d02b4a9cb769d29f4f545609",
      "title": "Fox X Supreme Helmet"
    },
    "generator": "Sketchfab-14.35.0",
    "version": "2.0"
  },
  "bufferViews": [
    {
      "buffer": 0,
      "byteLength": 57072,
      "name": "floatBufferViews",
      "target": 34963
    },
    {
      "buffer": 0,
      "byteLength": 35208,
      "byteOffset": 57072,
      "byteStride": 8,
      "name": "floatBufferViews",
      "target": 34962
    },
    {
      "buffer": 0,
      "byteLength": 105624,
      "byteOffset": 92280,
      "byteStride": 12,
      "name": "floatBufferViews",
      "target": 34962
    }
  ],
  "buffers": [
    {
      "byteLength": 197904,
      "uri": "scene.bin"
    }
  ],
  "extensionsUsed": [
    "KHR_materials_clearcoat"
  ],
  "images": [
    {
      "uri": "textures/material_baseColor.png"
    }
  ],
  "materials": [
    {
      "doubleSided": true,
      "name": "material",
      "pbrMetallicRoughness": {
        "baseColorTexture": {
          "index": 0
        },
        "metallicFactor": 0.0,
        "roughnessFactor": 0.3676171203569383
      }
    },
    {
      "doubleSided": true,
      "name": "Google",
      "pbrMetallicRoughness": {
        "baseColorTexture": {
          "index": 0
        },
        "metallicFactor": 0.0
      }
    },
    {
      "doubleSided": true,
      "name": "Metalicc",
      "pbrMetallicRoughness": {
        "baseColorFactor": [
          0.611426,
          0.611426,
          0.611426,
          1.0
        ],
        "roughnessFactor": 0.9496485659911594
      }
    },
    {
      "doubleSided": true,
      "name": "White",
      "pbrMetallicRoughness": {
        "baseColorFactor": [
          0.8,
          0.8,
          0.8,
          1.0
        ],
        "metallicFactor": 0.0,
        "roughnessFactor": 0.8063508327
      }
    },
    {
      "doubleSided": true,
      "name": "bLACK",
      "pbrMetallicRoughness": {
        "baseColorFactor": [
          0.0,
          0.0,
          0.0,
          1.0
        ],
        "metallicFactor": 0.0,
        "roughnessFactor": 0.8191914215
      }
    },
    {
      "alphaMode": "BLEND",
      "doubleSided": true,
      "extensions": {
        "KHR_materials_clearcoat": {
          "clearcoatFactor": 1.0,
          "clearcoatRoughnessFactor": 0.04
        }
      },
      "name": "black_gloss",
      "pbrMetallicRoughness": {
        "baseColorFactor": [
          0.002677,
          0.002677,
          0.002677,
          0.7617316941186485
        ],
        "metallicFactor": 0.0,
        "roughnessFactor": 0.0
      }
    },
    {
      "doubleSided": true,
      "name": "material_6",
      "pbrMetallicRoughness": {
        "baseColorFactor": [
          0.630103,
          0.005516,
          0.0,
          1.0
        ],
        "metallicFactor": 0.0,
        "roughnessFactor": 0.8063508327
      }
    }
  ],
  "meshes": [
    {
      "name": "Object_0",
      "primitives": [
        {
          "attributes": {
            "NORMAL": 1,
            "POSITION": 0,
            "TEXCOORD_0": 2
          },
          "indices": 3,
          "material": 0,
          "mode": 4
        }
      ]
    },
    {
      "name": "Object_1",
      "primitives": [
        {
          "attributes": {
            "NORMAL": 5,
            "POSITION": 4,
            "TEXCOORD_0": 6
          },
          "indices": 7,
          "material": 1,
          "mode": 4
        }
      ]
    },
    {
      "name": "Object_2",
      "primitives": [
        {
          "attributes": {
            "NORMAL": 9,
            "POSITION": 8,
            "TEXCOORD_0": 10
          },
          "indices": 11,
          "material": 2,
          "mode": 4
        }
      ]
    },
    {
      "name": "Object_3",
      "primitives": [
        {
          "attributes": {
            "NORMAL": 13,
            "POSITION": 12,
            "TEXCOORD_0": 14
          },
          "indices": 15,
          "material": 3,
          "mode": 4
        }
      ]
    },
    {
      "name": "Object_4",
      "primitives": [
        {
          "attributes": {
            "NORMAL": 17,
            "POSITION": 16,
            "TEXCOORD_0": 18
          },
          "indices": 19,
          "material": 4,
          "mode": 4
        }
      ]
    },
    {
      "name": "Object_5",
      "primitives": [
        {
          "attributes": {
            "NORMAL": 21,
            "POSITION": 20,
            "TEXCOORD_0": 22
          },
          "indices": 23,
          "material": 5,
          "mode": 4
        }
      ]
    },
    {
      "name": "Object_6",
      "primitives": [
        {
          "attributes": {
            "NORMAL": 25,
            "POSITION": 24,
            "TEXCOORD_0": 26
          },
          "indices": 27,
          "material": 6,
          "mode": 4
        }
      ]
    }
  ],
  "nodes": [
    {
      "children": [
        1
      ],
      "matrix": [
        1.0,
        0.0,
        0.0,
        0.0,
        0.0,
        2.220446049250313e-16,
        -1.0,
        0.0,
        0.0,
        1.0,
        2.220446049250313e-16,
        0.0,
        0.0,
        0.0,
        0.0,
        1.0
      ],
      "name": "Sketchfab_model"
    },
    {
      "children": [
        2,
        3,
        4,
        5,
        6,
        7,
        8
      ],
      "name": "Fox X Supreme.obj.cleaner.materialmerger.gles"
    },
    {
      "mesh": 0,
      "name": "Object_2"
    },
    {
      "mesh": 1,
      "name": "Object_3"
    },
    {
      "mesh": 2,
      "name": "Object_4"
    },
    {
      "mesh": 3,
      "name": "Object_5"
    },
    {
      "mesh": 4,
      "name": "Object_6"
    },
    {
      "mesh": 5,
      "name": "Object_7"
    },
    {
      "mesh": 6,
      "name": "Object_8"
    }
  ],
  "samplers": [
    {
      "magFilter": 9729,
      "minFilter": 9987,
      "wrapS": 10497,
      "wrapT": 10497
    }
  ],
  "scene": 0,
  "scenes": [
    {
      "name": "Sketchfab_Scene",
      "nodes": [
        0
      ]
    }
  ],
  "textures": [
    {
      "sampler": 0,
      "source": 0
    }
  ]
}
